#!OML:ASF F:\VICON\USERDATA\INSTALL\rory3\rory3.ASF
:FULLY-SPECIFIED
:DEGREES
726
root 0.852831 17.1461 8.2508 1.21382 22.6253 1.81675
lowerback 7.47066 0.294676 -5.27143
upperback 1.16008 0.0468961 2.14212
thorax -2.99361 0.0907448 5.19914
lowerneck -0.595305 -12.787 -21.9395
upperneck 5.65261 -18.9034 25.3506
head 6.52949 -9.1918 10.1846
rclavicle -4.68635e-014 -1.59028e-015
rhumerus -22.1363 -10.086 -47.7615
rradius 64.6893
rwrist -21.5038
rhand -15.1346 20.982
rfingers 7.12502
rthumb 11.0349 -8.70794
lclavicle -4.68635e-014 -1.59028e-015
lhumerus -40.9218 32.1094 15.6593
lradius 33.5027
lwrist 6.73044
lhand -9.61701 40.7703
lfingers 7.12502
lthumb 16.3524 -289.899
rfemur -37.4785 3.19715 19.9595
rtibia 43.5695
rfoot -8.74663 1.17994
rtoes 9.79704
lfemur -1.6668 -6.03085 -25.7324
ltibia 34.7412
lfoot -27.0944 -2.24101
ltoes 7.28326
727
root 0.823727 17.1625 8.26915 1.21462 22.4908 1.59855
lowerback 7.45491 0.525543 -5.14143
upperback 1.15698 0.368134 2.2164
thorax -3.02928 0.251078 5.17091
lowerneck 0.00647027 -12.7271 -22.1104
upperneck 5.10566 -18.853 25.5934
head 6.29271 -9.22105 10.3444
rclavicle -1.799e-014 -7.95139e-015
rhumerus -22.6889 -10.1212 -48.1019
rradius 64.2641
rwrist -21.2438
rhand -15.3072 21.0659
rfingers 7.12502
rthumb 10.8685 -8.63286
lclavicle -1.799e-014 -7.95139e-015
lhumerus -42.5662 32.1033 14.6708
lradius 33.4073
lwrist 7.39156
lhand -9.30414 40.9541
lfingers 7.12502
lthumb 16.6537 -289.74
rfemur -37.4738 3.46457 19.3929
rtibia 44.1186
rfoot -8.90045 0.312905
rtoes 13.0971
lfemur -1.78978 -6.09889 -25.4149
ltibia 34.7715
lfoot -27.0321 -1.88927
ltoes 6.52059
728
root 0.79995 17.1733 8.28302 1.2661 22.4934 1.51921
lowerback 7.45008 0.716491 -5.05756
upperback 1.19809 0.63185 2.26833
thorax -3.01724 0.380661 5.15085
lowerneck 0.278564 -12.7823 -22.3046
upperneck 4.72874 -18.926 25.7343
head 6.18808 -9.28498 10.4266
rclavicle 1.83876e-014 1.59028e-014
rhumerus -22.9746 -10.1752 -48.4082
rradius 63.623
rwrist -21
rhand -15.299 21.0573
rfingers 7.12502
rthumb 10.8764 -8.64108
lclavicle 1.83876e-014 1.59028e-014
lhumerus -44.3008 32.6276 13.476
lradius 33.1407
lwrist 7.4546
lhand -9.22053 40.9938
lfingers 7.12502
lthumb 16.7341 -289.707
rfemur -37.4307 3.28181 18.762
rtibia 44.6601
rfoot -9.22303 -0.36754
rtoes 12.4791
lfemur -2.01314 -6.15443 -25.2433
ltibia 34.9515
lfoot -27.0068 -1.83606
ltoes 6.16092
729
root 0.776503 17.1606 8.28858 1.2863 22.5554 1.2129
lowerback 7.47004 0.893216 -4.70586
upperback 1.25651 0.899912 2.39855
thorax -2.9986 0.509647 5.05964
lowerneck 0.506098 -12.868 -22.5782
upperneck 4.20991 -19.0254 26.0078
head 6.08222 -9.36076 10.5605
rclavicle -2.18663e-014 -1.51076e-014
rhumerus -23.3642 -10.2991 -48.6254
rradius 63.1746
rwrist -20.7067
rhand -15.0181 20.9753
rfingers 7.12502
rthumb 11.1473 -8.70861
lclavicle -2.18663e-014 -1.51076e-014
lhumerus -46.0774 33.4139 12.1952
lradius 32.6631
lwrist 7.02949
lhand -9.00708 40.8547
lfingers 7.12502
lthumb 16.9396 -289.864
rfemur -37.3115 2.73305 18.5824
rtibia 45.2104
rfoot -9.41523 -1.26731
rtoes 7.60644
lfemur -2.36366 -6.18039 -24.8313
ltibia 35.1953
lfoot -26.9977 -1.72099
ltoes 4.96101
730
root 0.748226 17.1564 8.29057 1.40607 22.6227 0.946149
lowerback 7.42195 1.04898 -4.41313
upperback 1.3597 1.13756 2.51523
thorax -2.8906 0.620864 4.99146
lowerneck 0.716409 -12.9016 -22.8157
upperneck 3.55082 -19.0355 26.3972
head 5.92749 -9.39327 10.7461
rclavicle 2.69353e-014 -1.27222e-014
rhumerus -23.6588 -10.6727 -48.9389
rradius 62.6307
rwrist -20.1134
rhand -14.5479 20.9944
rfingers 7.12502
rthumb 11.6007 -8.66447
lclavicle 2.69353e-014 -1.27222e-014
lhumerus -47.7582 33.6997 11.4081
lradius 32.4665
lwrist 7.38038
lhand -8.92922 40.8406
lfingers 7.12502
lthumb 17.0146 -289.885
rfemur -37.1771 2.22276 18.3693
rtibia 45.6873
rfoot -9.38604 -2.44835
rtoes 4.17371
lfemur -2.73889 -6.26149 -24.4365
ltibia 35.294
lfoot -26.9094 -1.63633
ltoes 3.75868
731
root 0.729982 17.1718 8.30374 1.4948 22.8542 0.993657
lowerback 7.07574 1.10481 -4.39342
upperback 1.82792 1.232 2.59471
thorax -2.22389 0.640722 5.05989
lowerneck 0.405505 -13.1025 -22.9577
upperneck 2.84828 -19.1633 26.6744
head 5.8607 -9.44605 10.8123
rclavicle -4.30369e-014 -7.95139e-016
rhumerus -23.1838 -11.2852 -49.425
rradius 61.7098
rwrist -19.5145
rhand -14.1174 20.9975
rfingers 7.12502
rthumb 12.0159 -8.63753
lclavicle -4.30369e-014 -7.95139e-016
lhumerus -49.3236 33.6917 11.2587
lradius 32.5583
lwrist 8.45092
lhand -9.10679 40.9747
lfingers 7.12502
lthumb 16.8436 -289.736
rfemur -36.9968 1.71186 17.5291
rtibia 46.0868
rfoot -9.48784 -3.03947
rtoes 7.36717
lfemur -2.81951 -6.43242 -24.4007
ltibia 35.3583
lfoot -26.844 -1.84731
ltoes 3.80168
732
root 0.728372 17.193 8.33549 1.4088 23.2765 1.17108
lowerback 7.32136 1.18884 -4.2029
upperback 1.82488 1.34718 2.51615
thorax -2.3719 0.701179 4.8548
lowerneck 0.702549 -13.3038 -22.9934
upperneck 2.54562 -19.4306 26.5079
head 5.76989 -9.60457 10.7218
rclavicle 7.65321e-015 -5.56597e-015
rhumerus -23.7128 -11.3757 -49.6835
rradius 60.8923
rwrist -19.274
rhand -13.903 20.7778
rfingers 7.12502
rthumb 12.2227 -8.84507
lclavicle 7.65321e-015 -5.56597e-015
lhumerus -50.9899 33.3494 10.46
lradius 32.2099
lwrist 7.64932
lhand -7.41686 40.6287
lfingers 7.12502
lthumb 18.4699 -290.228
rfemur -36.4478 0.778762 16.4903
rtibia 46.4027
rfoot -9.84285 -3.16948
rtoes 11.1288
lfemur -2.44104 -6.60836 -24.5515
ltibia 35.2657
lfoot -26.8485 -2.15906
ltoes 4.07209
733
root 0.694214 17.2055 8.34572 1.55578 23.2311 0.77186
lowerback 7.28056 1.41864 -3.8767
upperback 1.71444 1.68301 2.66259
thorax -2.49824 0.872863 4.78916
lowerneck 0.619148 -13.5501 -23.0175
upperneck 2.62317 -19.7424 26.1971
head 5.84862 -9.75021 10.5436
rclavicle 2.37548e-014 4.77083e-015
rhumerus -24.1501 -11.4647 -49.9487
rradius 60.0454
rwrist -19.132
rhand -13.8003 20.6762
rfingers 7.12502
rthumb 12.3216 -8.94078
lclavicle 2.37548e-014 4.77083e-015
lhumerus -51.594 31.7532 12.1377
lradius 33.0344
lwrist 13.0142
lhand -12.8074 43.0734
lfingers 7.12502
lthumb 13.2788 -287.37
rfemur -36.5127 0.87253 16.1311
rtibia 46.6297
rfoot -10.0468 -4.18567
rtoes 13.7176
lfemur -2.76196 -6.50935 -23.9164
ltibia 35.1878
lfoot -26.8252 -2.35927
ltoes 4.19778
734
root 0.664136 17.2129 8.36183 1.59132 23.2823 0.367487
lowerback 7.31721 1.62579 -3.44659
upperback 1.64606 1.99396 2.77204
thorax -2.61446 1.02971 4.62635
lowerneck 0.423044 -13.7811 -23.1393
upperneck 2.80613 -20.0594 26.1459
head 6.02541 -9.8866 10.4657
rclavicle -1.94809e-014 -3.18055e-015
rhumerus -24.76 -11.696 -50.2853
rradius 59.1894
rwrist -18.9176
rhand -13.1702 20.7263
rfingers 7.12502
rthumb 12.9292 -8.85313
lclavicle -1.94809e-014 -3.18055e-015
lhumerus -53.7224 32.9378 10.1784
lradius 31.8879
lwrist 9.24555
lhand -9.89404 41.6856
lfingers 7.12502
lthumb 16.0857 -288.962
rfemur -36.3918 0.719889 15.7935
rtibia 46.7703
rfoot -10.3069 -5.12419
rtoes 16.8599
lfemur -2.90633 -6.51355 -23.3236
ltibia 35.0696
lfoot -26.8257 -2.47778
ltoes 4.20382
735
root 0.638423 17.2204 8.37216 1.67949 23.3273 0.103984
lowerback 7.46059 1.81395 -3.07546
upperback 1.59762 2.27314 2.86031
thorax -2.76404 1.17065 4.47505
lowerneck 0.362918 -13.9598 -23.2693
upperneck 2.65861 -20.2817 26.2175
head 6.0738 -9.99244 10.4589
rclavicle 1.11916e-013 -2.54444e-014
rhumerus -25.2235 -11.9225 -50.6318
rradius 58.3808
rwrist -18.7451
rhand -12.6103 20.6113
rfingers 7.12502
rthumb 13.4688 -8.93325
lclavicle 1.11916e-013 -2.54444e-014
lhumerus -55.3834 33.205 9.6633
lradius 31.5908
lwrist 9.02225
lhand -10.1661 41.7741
lfingers 7.12502
lthumb 15.8237 -288.853
rfemur -36.2716 0.447826 15.2904
rtibia 46.8037
rfoot -10.5059 -5.97891
rtoes 20.3883
lfemur -3.07703 -6.51947 -22.9047
ltibia 34.9419
lfoot -26.7123 -2.4828
ltoes 4.04051
736
root 0.623195 17.2428 8.38928 1.7834 23.5044 0.0809816
lowerback 7.4723 1.89367 -2.92478
upperback 1.67165 2.39356 2.94601
thorax -2.70373 1.22778 4.4673
lowerneck 0.428386 -14.0415 -23.4385
upperneck 2.21487 -20.338 26.3075
head 5.97623 -10.0341 10.5059
rclavicle -1.58034e-014 -1.27222e-014
rhumerus -25.2368 -12.1294 -51.0028
rradius 57.3419
rwrist -18.3451
rhand -12.316 20.848
rfingers 7.12502
rthumb 13.7524 -8.67746
lclavicle -1.58034e-014 -1.27222e-014
lhumerus -57.4047 33.4844 8.96367
lradius 31.287
lwrist 8.51984
lhand -9.60898 41.7941
lfingers 7.12502
lthumb 16.3602 -288.876
rfemur -35.922 0.197723 14.4576
rtibia 46.7343
rfoot -10.6043 -6.92282
rtoes 23.3009
lfemur -2.98035 -6.61115 -22.773
ltibia 34.5742
lfoot -26.5778 -2.54838
ltoes 4.20853
737
root 0.613133 17.269 8.41803 1.92032 23.8307 0.281267
lowerback 7.38446 1.94276 -2.93182
upperback 1.75475 2.45943 2.94074
thorax -2.57535 1.25698 4.46256
lowerneck 0.796429 -14.0634 -23.5732
upperneck 1.63953 -20.3534 26.4704
head 5.7833 -10.0794 10.6065
rclavicle -2.24627e-014 3.97569e-014
rhumerus -25.2634 -12.4105 -51.4142
rradius 56.0802
rwrist -17.6404
rhand -12.2869 21.2242
rfingers 7.12502
rthumb 13.7805 -8.29935
lclavicle -2.24627e-014 3.97569e-014
lhumerus -58.9845 33.1462 9.05532
lradius 31.1117
lwrist 8.86877
lhand -9.89432 41.9725
lfingers 7.12502
lthumb 16.0854 -288.675
rfemur -35.4348 -0.36068 13.4521
rtibia 46.6052
rfoot -10.4947 -7.82742
rtoes 24.1858
lfemur -2.72705 -6.77769 -22.8757
ltibia 34.1283
lfoot -26.4884 -2.7264
ltoes 4.60667
738
root 0.591833 17.2948 8.44708 2.05595 24.0587 0.232384
lowerback 7.32052 2.08327 -2.7771
upperback 1.72379 2.66025 2.95932
thorax -2.58607 1.35701 4.37484
lowerneck 1.18451 -14.226 -23.5335
upperneck 1.22319 -20.5806 26.4457
head 5.64349 -10.2244 10.573
rclavicle 1.63003e-014 7.15625e-015
rhumerus -25.5328 -12.6693 -51.7727
rradius 54.7127
rwrist -17.0434
rhand -12.1832 21.7523
rfingers 7.12502
rthumb 13.8805 -7.76453
lclavicle 1.63003e-014 7.15625e-015
lhumerus -60.1117 32.3271 9.74244
lradius 30.9989
lwrist 9.73968
lhand -10.3638 42.2256
lfingers 7.12502
lthumb 15.6333 -288.386
rfemur -35.1288 -1.08221 12.8562
rtibia 46.4107
rfoot -10.335 -8.72495
rtoes 25.067
lfemur -2.63653 -6.82456 -22.6433
ltibia 33.666
lfoot -26.3044 -2.89895
ltoes 4.58259
